<svg width="151" height="177" viewBox="0 0 151 177" xmlns="http://www.w3.org/2000/svg" xmlns:xlink="http://www.w3.org/1999/xlink">
    <defs>
        <path id="a" d="M143.32 82.232H.93V.022h142.39z"/>
    </defs>
    <g fill="none" fill-rule="evenodd">
        <g transform="translate(1 94.028)">
            <mask id="b" fill="#fff">
                <use xlink:href="#a"/>
            </mask>
            <path d="M55.893 80.546L3.85 50.499C-.479 48 .07 43.593 5.068 40.708l66.33-38.296c4.998-2.887 12.63-3.203 16.96-.704L140.4 31.755c4.329 2.5 3.78 6.906-1.218 9.791l-66.33 38.297c-5 2.886-12.63 3.202-16.96.703" fill-opacity=".25" fill="#40CEBB" mask="url(#b)"/>
        </g>
        <path d="M4.24 115.67c-.803-.783-1.64-2.13-1.64-4.354V51.33c0-2.842 2.014-6.33 4.475-7.75L22.35 34.76 42.1 23.358 61.85 11.957l15.276-8.82c1.29-.745 2.454-.774 3.272-.23l.009-.002 3.09 2.056-1.897 1.09V68.968L61.85 80.371 42.1 91.773l-19.75 11.403-16.65 9.613v3.856l-.86-.574-.6-.4z" stroke="#33475C" stroke-width="5" stroke-linecap="round" stroke-linejoin="round"/>
        <path d="M7.49 121.81c-.984-.567-1.79-1.963-1.79-3.1v-2.066l5.545-1.275-.208 2.328 14.413-8.322L45.2 97.972l39.5-22.804 39.499 22.804 13.402 7.739v-.647h3.72v4.29h-.004c.009.944-.603 1.89-1.843 2.604l-15.275 8.82-19.75 11.403-19.75 11.401-15.275 8.82c-2.462 1.421-6.488 1.421-8.947 0l-15.278-8.82-19.749-11.401-17.96-10.37z" stroke="#33475C" stroke-width="5" stroke-linecap="round" stroke-linejoin="round"/>
        <path d="M25.45 128.047L45.2 139.45l15.277 8.82c2.46 1.42 6.485 1.42 8.946 0l15.276-8.82 19.75-11.403 19.75-11.402 15.275-8.82c2.46-1.42 2.46-3.745 0-5.165L124.2 93.84l-39.5-22.805-39.5 22.804-19.749 11.403L5.7 116.644l19.75 11.403" stroke="#33475C" stroke-width="5" stroke-linecap="round" stroke-linejoin="round"/>
        <path d="M64.95 82.437L45.2 93.84l-19.75 11.402L5.7 116.645v-63.25c0-2.84 2.014-6.327 4.473-7.75l15.277-8.818L45.2 25.425l19.75-11.402 15.276-8.82c2.46-1.42 4.473-.259 4.473 2.582v63.25l-19.75 11.402" stroke="#33475C" stroke-width="5" stroke-linecap="round" stroke-linejoin="round"/>
        <path d="M77.458 13.382c1.477-.853 2.685-.155 2.685 1.55v49.996c0 1.703-1.208 3.796-2.685 4.648l-64.517 37.25c-1.477.852-2.685.155-2.685-1.55V55.282c0-1.706 1.208-3.798 2.685-4.65l64.517-37.25zM69.455 126.127c-2.086-1.205-2.086-3.177 0-4.38l23.584-13.616c2.086-1.205 5.501-1.205 7.587 0l12.163 7.021c2.086 1.205 2.086 3.176 0 4.38l-23.585 13.616c-2.086 1.205-5.5 1.205-7.587 0l-12.162-7.021z" stroke="#33475C" stroke-width="5" stroke-linecap="round" stroke-linejoin="round"/>
        <path d="M69.455 126.127c-2.086-1.205-2.086-3.177 0-4.38l23.584-13.616c2.086-1.205 5.501-1.205 7.587 0l12.163 7.021c2.086 1.205 2.086 3.176 0 4.38l-23.585 13.616c-2.086 1.205-5.5 1.205-7.587 0l-12.162-7.021zM27.77 117.161c-2.087-1.205-2.087-3.177 0-4.38l52.142-30.103c2.086-1.205 5.5-1.205 7.586 0l17.833 10.295c2.088 1.204 2.088 3.176 0 4.381L53.19 127.456c-2.086 1.205-5.5 1.205-7.588 0L27.77 117.161z" stroke="#33475C" stroke-width="5" stroke-linecap="round" stroke-linejoin="round"/>
        <path d="M27.77 117.161c-2.087-1.205-2.087-3.177 0-4.38l52.142-30.103c2.086-1.205 5.5-1.205 7.586 0l17.833 10.295c2.088 1.204 2.088 3.176 0 4.381L53.19 127.456c-2.086 1.205-5.5 1.205-7.588 0L27.77 117.161zM16.264 110.546l9.186-5.304L45.2 93.84l30.793-17.778 3.474 2.005-59.728 34.486zM4.24 115.67c-.803-.783-1.64-2.13-1.64-4.354V51.33c0-2.842 2.014-6.33 4.475-7.75L22.35 34.76 42.1 23.358 61.85 11.957l15.276-8.82c1.29-.745 2.454-.774 3.272-.23l.009-.002 3.09 2.056-1.897 1.09V68.968L61.85 80.371 42.1 91.773l-19.75 11.403-16.65 9.613v3.856l-.86-.574-.6-.4z" stroke="#33475C" stroke-width="5" stroke-linecap="round" stroke-linejoin="round"/>
        <path d="M7.49 121.81c-.984-.567-1.79-1.963-1.79-3.1v-2.066l5.545-1.275-.208 2.328 14.413-8.322L45.2 97.972l39.5-22.804 39.499 22.804 13.402 7.739v-.647h3.72v4.29h-.004c.009.944-.603 1.89-1.843 2.604l-15.275 8.82-19.75 11.403-19.75 11.401-15.275 8.82c-2.462 1.421-6.488 1.421-8.947 0l-15.278-8.82-19.749-11.401-17.96-10.37z" stroke="#33475C" stroke-width="5" stroke-linecap="round" stroke-linejoin="round"/>
        <path d="M25.45 128.047L45.2 139.45l15.277 8.82c2.46 1.42 6.485 1.42 8.946 0l15.276-8.82 19.75-11.403 19.75-11.402 15.275-8.82c2.46-1.42 2.46-3.745 0-5.165L124.2 93.84l-39.5-22.805-39.5 22.804-19.749 11.403L5.7 116.644l19.75 11.403" stroke="#33475C" stroke-width="5" stroke-linecap="round" stroke-linejoin="round"/>
        <path d="M64.95 82.437L45.2 93.84l-19.75 11.402L5.7 116.645v-63.25c0-2.84 2.014-6.327 4.473-7.75l15.277-8.818L45.2 25.425l19.75-11.402 15.276-8.82c2.46-1.42 4.473-.259 4.473 2.582v63.25l-19.75 11.402" stroke="#33475C" stroke-width="5" stroke-linecap="round" stroke-linejoin="round"/>
        <path d="M77.458 13.382c1.477-.853 2.685-.155 2.685 1.55v49.996c0 1.703-1.208 3.796-2.685 4.648l-64.517 37.25c-1.477.852-2.685.155-2.685-1.55V55.282c0-1.706 1.208-3.798 2.685-4.65l64.517-37.25zM69.455 126.127c-2.086-1.205-2.086-3.177 0-4.38l23.584-13.616c2.086-1.205 5.501-1.205 7.587 0l12.163 7.021c2.086 1.205 2.086 3.176 0 4.38l-23.585 13.616c-2.086 1.205-5.5 1.205-7.587 0l-12.162-7.021z" stroke="#33475C" stroke-width="5" stroke-linecap="round" stroke-linejoin="round"/>
        <path d="M69.455 126.127c-2.086-1.205-2.086-3.177 0-4.38l23.584-13.616c2.086-1.205 5.501-1.205 7.587 0l12.163 7.021c2.086 1.205 2.086 3.176 0 4.38l-23.585 13.616c-2.086 1.205-5.5 1.205-7.587 0l-12.162-7.021zM27.77 117.161c-2.087-1.205-2.087-3.177 0-4.38l52.142-30.103c2.086-1.205 5.5-1.205 7.586 0l17.833 10.295c2.088 1.204 2.088 3.176 0 4.381L53.19 127.456c-2.086 1.205-5.5 1.205-7.588 0L27.77 117.161z" stroke="#33475C" stroke-width="5" stroke-linecap="round" stroke-linejoin="round"/>
        <path d="M27.77 117.161c-2.087-1.205-2.087-3.177 0-4.38l52.142-30.103c2.086-1.205 5.5-1.205 7.586 0l17.833 10.295c2.088 1.204 2.088 3.176 0 4.381L53.19 127.456c-2.086 1.205-5.5 1.205-7.588 0L27.77 117.161zM16.264 110.546l9.186-5.304L45.2 93.84l30.793-17.778 3.474 2.005-59.728 34.486zM78.354 13.261c.983-.568 1.789-.103 1.789 1.033v53.095c0 1.137-.806 2.533-1.79 3.1l-66.307 38.283c-.985.568-1.79.103-1.79-1.033V54.643c0-1.136.805-2.53 1.79-3.1l66.308-38.282z" stroke="#33475C" stroke-width="5" stroke-linecap="round" stroke-linejoin="round"/>
        <path d="M10.772 54.644c0-.959.702-2.174 1.532-2.652l66.308-38.284c.305-.176.578-.218.747-.123.17.099.267.357.267.71v29.557L10.772 83.605V54.644z" stroke="#33475C" stroke-width="5" stroke-linecap="round" stroke-linejoin="round"/>
        <path d="M12.045 51.543l66.308-38.282c.985-.568 1.79-.103 1.79 1.033v3.501l-69.887 40.35v-3.502c0-1.136.806-2.53 1.79-3.1zM75.92 50.715L51.74 64.557M75.92 53.685l-15.298 8.832M22.796 81.487l-9.115 5.218M28.981 80.998L13.682 89.83M22.796 90.786l-9.115 5.217M21.331 94.234l-7.649 4.379M22.796 96.003l-9.115 5.218M20.295 100.044l-6.613 3.785M37.704 93.361V80.863c0-.621.44-1.384.979-1.696l36.259-20.934c.538-.31.978-.056.978.565v12.5L37.704 93.36zM33.657 72.459v21.174" stroke="#33475C" stroke-width="5" stroke-linecap="round" stroke-linejoin="round"/>
        <path d="M78.354 13.261c.983-.568 1.789-.103 1.789 1.033v53.095c0 1.137-.806 2.533-1.79 3.1l-66.307 38.283c-.985.568-1.79.103-1.79-1.033V54.643c0-1.136.805-2.53 1.79-3.1l66.308-38.282z" stroke="#33475C" stroke-width="5" stroke-linecap="round" stroke-linejoin="round"/>
        <path d="M40.74 69.934c-.693.4-1.255 1.287-1.255 1.98v2.363c0 .072-.044.164-.111.23-.067.073-.149.103-.197.073l-3.372-1.406c-.235-.099-.555-.047-.888.148l-10.158 5.863c-1.332.77-2.411.313-2.411-1.019V66.727c0-1.332 1.08-3.036 2.411-3.804l20.605-11.897c1.333-.768 2.412-.312 2.412 1.02V63.46c0 1.331-1.079 3.035-2.412 3.804l-4.623 2.67zm1.277 2.901v-1.101l3.372-1.948c2.719-1.571 4.922-5.047 4.925-7.767V50.58c-.003-2.717-2.206-3.648-4.925-2.08L24.785 60.395c-2.72 1.572-4.923 5.047-4.925 7.767v11.409c.002 2.716 2.206 3.648 4.925 2.08l9.603-5.544 3.016 1.274c.77.327 1.928-.111 2.934-1.11 1.007-.989 1.67-2.345 1.679-3.437z" stroke="#33475C" stroke-width="5" stroke-linecap="round" stroke-linejoin="round"/>
        <path d="M45.364 67.264c1.333-.77 2.412-2.473 2.412-3.804V52.045c0-1.331-1.079-1.788-2.412-1.019L24.76 62.923c-1.332.768-2.411 2.472-2.411 3.804v11.44c0 1.33 1.08 1.788 2.411 1.018l10.157-5.863c.334-.195.654-.247.89-.148l3.371 1.405c.048.03.13 0 .197-.073.067-.065.112-.157.11-.23v-2.362c0-.693.563-1.58 1.257-1.98l4.623-2.67z" stroke="#33475C" stroke-width="5" stroke-linecap="round" stroke-linejoin="round"/>
        <path d="M38.866 63.643c0-.694-.562-.932-1.256-.53-.695.4-1.256 1.287-1.256 1.98 0 .695.561.931 1.256.531.694-.4 1.256-1.288 1.256-1.981zM33.84 66.545c0-.694-.562-.932-1.255-.531-.695.4-1.257 1.287-1.257 1.981 0 .695.562.932 1.257.53.683-.407 1.231-1.282 1.231-1.965l.025-.015zM28.785 69.464c0-.694-.562-.932-1.257-.532-.694.401-1.256 1.288-1.256 1.982s.562.931 1.256.53c.684-.407 1.233-1.282 1.231-1.965l.026-.015zM41.434 62.16c0 .693.563.931 1.256.531.695-.4 1.257-1.288 1.257-1.981 0-.695-.562-.932-1.257-.53-.693.386-1.266 1.267-1.28 1.97v.025l.024-.015z" stroke="#33475C" stroke-width="5" stroke-linecap="round" stroke-linejoin="round"/>
        <path d="M46.016 55.583l66.316-38.287c1.003-.58 1.916-.632 2.576-.25l3.472 2.005c.662.381 1.073 1.197 1.073 2.356V65.43c0 2.316-1.643 5.16-3.649 6.317L86.178 88.853l-4.05 9.02-4.05-4.343-28.59 16.505c-1.003.58-1.915.633-2.576.25l-3.472-2.003c-.662-.383-1.072-1.198-1.072-2.356V61.902c0-2.317 1.642-5.16 3.648-6.319z" stroke="#33475C" stroke-width="5" stroke-linecap="round" stroke-linejoin="round"/>
        <path d="M42.368 61.901c0-2.316 1.641-5.159 3.647-6.318l66.317-38.287c1.003-.58 1.915-.632 2.576-.25l3.473 2.005c-.662-.383-1.573-.33-2.576.25L49.487 57.588c-2.006 1.16-3.647 4.002-3.647 6.318v44.025c0 1.157.41 1.973 1.071 2.355l-3.472-2.004c-.661-.383-1.071-1.199-1.071-2.356V61.9z" stroke="#33475C" stroke-width="5" stroke-linecap="round" stroke-linejoin="round"/>
        <path d="M46.016 55.583l66.316-38.287c1.003-.58 1.916-.632 2.576-.25l3.472 2.005c.662.381 1.073 1.197 1.073 2.356V65.43c0 2.316-1.643 5.16-3.649 6.317L86.178 88.853l-4.05 9.02-4.05-4.343-28.59 16.505c-1.003.58-1.915.633-2.576.25l-3.472-2.003c-.662-.383-1.072-1.198-1.072-2.356V61.902c0-2.317 1.642-5.16 3.648-6.319zM53.896 73.242l57.606-33.258M53.896 81.267L97.62 56.023M53.896 65.217l48.909-28.238M53.896 97.317l45.593-26.324M53.896 89.292l55.379-31.973" stroke="#33475C" stroke-width="5" stroke-linecap="round" stroke-linejoin="round"/>
        <path d="M104.16 61.817l37.942-21.905c.796-.46 1.518-.501 2.043-.2l2.754 1.59c.524.304.85.951.85 1.869v34.918c0 1.837-1.302 4.092-2.893 5.01l-16.17 9.336h.001l-3.213 7.153-3.213-3.443-15.346 8.86c-.796.46-1.52.501-2.044.198l-2.754-1.589c-.525-.303-.85-.95-.85-1.868V66.828c0-1.836 1.303-4.092 2.894-5.011z" stroke="#33475C" stroke-width="5" stroke-linecap="round" stroke-linejoin="round"/>
        <path d="M101.267 66.828c0-1.837 1.302-4.092 2.893-5.01l37.942-21.907c.795-.458 1.519-.5 2.043-.198l2.754 1.59c-.524-.303-1.248-.26-2.043.198l-37.942 21.906c-1.59.918-2.892 3.174-2.892 5.011v34.917c0 .919.325 1.566.849 1.868l-2.754-1.588c-.524-.305-.85-.951-.85-1.869V66.828z" stroke="#33475C" stroke-width="5" stroke-linecap="round" stroke-linejoin="round"/>
        <path d="M104.16 61.817l37.942-21.905c.796-.46 1.518-.501 2.043-.2l2.754 1.59c.524.304.85.951.85 1.869v34.918c0 1.837-1.302 4.092-2.893 5.01l-16.17 9.336h.001l-3.213 7.153-3.213-3.443-15.346 8.86c-.796.46-1.52.501-2.044.198l-2.754-1.589c-.525-.303-.85-.95-.85-1.868V66.828c0-1.836 1.303-4.092 2.894-5.011zM110.785 77.517l29.882-17.254M110.785 85.54l23.393-13.505M110.785 69.492l26.73-15.434M110.785 93.566l28.579-16.502" stroke="#33475C" stroke-width="5" stroke-linecap="round" stroke-linejoin="round"/>
        <path d="M4.24 115.67c-.803-.783-1.64-2.13-1.64-4.354V51.33c0-2.842 2.014-6.33 4.475-7.75L22.35 34.76 42.1 23.358 61.85 11.957l15.276-8.82c1.29-.745 2.454-.774 3.272-.23l.009-.002 3.09 2.056-1.897 1.09V68.968L61.85 80.371 42.1 91.773l-19.75 11.403-16.65 9.613v3.856l-.86-.574-.6-.4z" stroke="#33475C" stroke-linecap="round" stroke-linejoin="round"/>
        <path d="M7.49 121.81c-.984-.567-1.79-1.963-1.79-3.1v-2.066l5.545-1.275-.208 2.328 14.413-8.322L45.2 97.972l39.5-22.804 39.499 22.804 13.402 7.739v-.647h3.72v4.29h-.004c.009.944-.603 1.89-1.843 2.604l-15.275 8.82-19.75 11.403-19.75 11.401-15.275 8.82c-2.462 1.421-6.488 1.421-8.947 0l-15.278-8.82-19.749-11.401-17.96-10.37z" stroke="#33475C" stroke-linecap="round" stroke-linejoin="round"/>
        <path d="M25.45 128.047L45.2 139.45l15.277 8.82c2.46 1.42 6.485 1.42 8.946 0l15.276-8.82 19.75-11.403 19.75-11.402 15.275-8.82c2.46-1.42 2.46-3.745 0-5.165L124.2 93.84l-39.5-22.805-39.5 22.804-19.749 11.403L5.7 116.644l19.75 11.403" stroke="#33475C" stroke-linecap="round" stroke-linejoin="round"/>
        <path d="M64.95 82.437L45.2 93.84l-19.75 11.402L5.7 116.645v-63.25c0-2.84 2.014-6.327 4.473-7.75l15.277-8.818L45.2 25.425l19.75-11.402 15.276-8.82c2.46-1.42 4.473-.259 4.473 2.582v63.25l-19.75 11.402" stroke="#33475C" stroke-linecap="round" stroke-linejoin="round"/>
        <path d="M77.458 13.382c1.477-.853 2.685-.155 2.685 1.55v49.996c0 1.703-1.208 3.796-2.685 4.648l-64.517 37.25c-1.477.852-2.685.155-2.685-1.55V55.282c0-1.706 1.208-3.798 2.685-4.65l64.517-37.25zM69.455 126.127c-2.086-1.205-2.086-3.177 0-4.38l23.584-13.616c2.086-1.205 5.501-1.205 7.587 0l12.163 7.021c2.086 1.205 2.086 3.176 0 4.38l-23.585 13.616c-2.086 1.205-5.5 1.205-7.587 0l-12.162-7.021z" stroke="#33475C" stroke-width="5" stroke-linecap="round" stroke-linejoin="round"/>
        <path d="M69.455 126.127c-2.086-1.205-2.086-3.177 0-4.38l23.584-13.616c2.086-1.205 5.501-1.205 7.587 0l12.163 7.021c2.086 1.205 2.086 3.176 0 4.38l-23.585 13.616c-2.086 1.205-5.5 1.205-7.587 0l-12.162-7.021zM27.77 117.161c-2.087-1.205-2.087-3.177 0-4.38l52.142-30.103c2.086-1.205 5.5-1.205 7.586 0l17.833 10.295c2.088 1.204 2.088 3.176 0 4.381L53.19 127.456c-2.086 1.205-5.5 1.205-7.588 0L27.77 117.161z" stroke="#33475C" stroke-width="5" stroke-linecap="round" stroke-linejoin="round"/>
        <path d="M27.77 117.161c-2.087-1.205-2.087-3.177 0-4.38l52.142-30.103c2.086-1.205 5.5-1.205 7.586 0l17.833 10.295c2.088 1.204 2.088 3.176 0 4.381L53.19 127.456c-2.086 1.205-5.5 1.205-7.588 0L27.77 117.161zM16.264 110.546l9.186-5.304L45.2 93.84l30.793-17.778 3.474 2.005-59.728 34.486z" stroke="#33475C" stroke-width="5" stroke-linecap="round" stroke-linejoin="round"/>
        <path d="M4.24 115.67c-.803-.783-1.64-2.13-1.64-4.354V51.33c0-2.842 2.014-6.33 4.475-7.75L22.35 34.76 42.1 23.358 61.85 11.957l15.276-8.82c1.29-.745 2.454-.774 3.272-.23l.009-.002 3.09 2.056-1.897 1.09V68.968L61.85 80.371 42.1 91.773l-19.75 11.403-16.65 9.613v3.856l-.86-.574-.6-.4z" fill="#CBD6E3"/>
        <path d="M4.24 115.67c-.803-.783-1.64-2.13-1.64-4.354V51.33c0-2.842 2.014-6.33 4.475-7.75L22.35 34.76 42.1 23.358 61.85 11.957l15.276-8.82c1.29-.745 2.454-.774 3.272-.23l.009-.002 3.09 2.056-1.897 1.09V68.968L61.85 80.371 42.1 91.773l-19.75 11.403-16.65 9.613v3.856l-.86-.574-.6-.4z" stroke="#33475C" stroke-linecap="round" stroke-linejoin="round"/>
        <path d="M7.49 121.81c-.984-.567-1.79-1.963-1.79-3.1v-2.066l5.545-1.275-.208 2.328 14.413-8.322L45.2 97.972l39.5-22.804 39.499 22.804 13.402 7.739v-.647h3.72v4.29h-.004c.009.944-.603 1.89-1.843 2.604l-15.275 8.82-19.75 11.403-19.75 11.401-15.275 8.82c-2.462 1.421-6.488 1.421-8.947 0l-15.278-8.82-19.749-11.401-17.96-10.37z" fill="#CBD6E3"/>
        <path d="M7.49 121.81c-.984-.567-1.79-1.963-1.79-3.1v-2.066l5.545-1.275-.208 2.328 14.413-8.322L45.2 97.972l39.5-22.804 39.499 22.804 13.402 7.739v-.647h3.72v4.29h-.004c.009.944-.603 1.89-1.843 2.604l-15.275 8.82-19.75 11.403-19.75 11.401-15.275 8.82c-2.462 1.421-6.488 1.421-8.947 0l-15.278-8.82-19.749-11.401-17.96-10.37z" stroke="#33475C" stroke-linecap="round" stroke-linejoin="round"/>
        <path d="M25.45 128.047L45.2 139.45l15.277 8.82c2.46 1.42 6.485 1.42 8.946 0l15.276-8.82 19.75-11.403 19.75-11.402 15.275-8.82c2.46-1.42 2.46-3.745 0-5.165L124.2 93.84l-39.5-22.805-39.5 22.804-19.749 11.403L5.7 116.644l19.75 11.403" fill="#E4EAEF"/>
        <path d="M25.45 128.047L45.2 139.45l15.277 8.82c2.46 1.42 6.485 1.42 8.946 0l15.276-8.82 19.75-11.403 19.75-11.402 15.275-8.82c2.46-1.42 2.46-3.745 0-5.165L124.2 93.84l-39.5-22.805-39.5 22.804-19.749 11.403L5.7 116.644l19.75 11.403" stroke="#33475C" stroke-linecap="round" stroke-linejoin="round"/>
        <path d="M64.95 82.437L45.2 93.84l-19.75 11.402L5.7 116.645v-63.25c0-2.84 2.014-6.327 4.473-7.75l15.277-8.818L45.2 25.425l19.75-11.402 15.276-8.82c2.46-1.42 4.473-.259 4.473 2.582v63.25l-19.75 11.402" fill="#32475C"/>
        <path d="M64.95 82.437L45.2 93.84l-19.75 11.402L5.7 116.645v-63.25c0-2.84 2.014-6.327 4.473-7.75l15.277-8.818L45.2 25.425l19.75-11.402 15.276-8.82c2.46-1.42 4.473-.259 4.473 2.582v63.25l-19.75 11.402" stroke="#33475C" stroke-linecap="round" stroke-linejoin="round"/>
        <path d="M77.458 13.382c1.477-.853 2.685-.155 2.685 1.55v49.996c0 1.703-1.208 3.796-2.685 4.648l-64.517 37.25c-1.477.852-2.685.155-2.685-1.55V55.282c0-1.706 1.208-3.798 2.685-4.65l64.517-37.25z" fill="#415A77"/>
        <path d="M77.458 13.382c1.477-.853 2.685-.155 2.685 1.55v49.996c0 1.703-1.208 3.796-2.685 4.648l-64.517 37.25c-1.477.852-2.685.155-2.685-1.55V55.282c0-1.706 1.208-3.798 2.685-4.65l64.517-37.25z" stroke="#33475C" stroke-linecap="round" stroke-linejoin="round"/>
        <path d="M69.455 126.127c-2.086-1.205-2.086-3.177 0-4.38l23.584-13.616c2.086-1.205 5.501-1.205 7.587 0l12.163 7.021c2.086 1.205 2.086 3.176 0 4.38l-23.585 13.616c-2.086 1.205-5.5 1.205-7.587 0l-12.162-7.021z" fill="#EAF0F6"/>
        <path d="M69.455 126.127c-2.086-1.205-2.086-3.177 0-4.38l23.584-13.616c2.086-1.205 5.501-1.205 7.587 0l12.163 7.021c2.086 1.205 2.086 3.176 0 4.38l-23.585 13.616c-2.086 1.205-5.5 1.205-7.587 0l-12.162-7.021z" stroke="#33475C"/>
        <path d="M27.77 117.161c-2.087-1.205-2.087-3.177 0-4.38l52.142-30.103c2.086-1.205 5.5-1.205 7.586 0l17.833 10.295c2.088 1.204 2.088 3.176 0 4.381L53.19 127.456c-2.086 1.205-5.5 1.205-7.588 0L27.77 117.161z" fill="#CBD6E3"/>
        <path d="M27.77 117.161c-2.087-1.205-2.087-3.177 0-4.38l52.142-30.103c2.086-1.205 5.5-1.205 7.586 0l17.833 10.295c2.088 1.204 2.088 3.176 0 4.381L53.19 127.456c-2.086 1.205-5.5 1.205-7.588 0L27.77 117.161z" stroke="#33475C" stroke-linecap="round" stroke-linejoin="round"/>
        <path fill="#415A77" d="M16.264 110.546l9.186-5.304L45.2 93.84l30.793-17.778 3.474 2.005-59.728 34.486z"/>
        <path stroke="#33475C" stroke-linecap="round" stroke-linejoin="round" d="M16.264 110.546l9.186-5.304L45.2 93.84l30.793-17.778 3.474 2.005-59.728 34.486z"/>
        <path d="M78.354 13.261c.983-.568 1.789-.103 1.789 1.033v53.095c0 1.137-.806 2.533-1.79 3.1l-66.307 38.283c-.985.568-1.79.103-1.79-1.033V54.643c0-1.136.805-2.53 1.79-3.1l66.308-38.282z" fill="#FFF"/>
        <path d="M78.354 13.261c.983-.568 1.789-.103 1.789 1.033v53.095c0 1.137-.806 2.533-1.79 3.1l-66.307 38.283c-.985.568-1.79.103-1.79-1.033V54.643c0-1.136.805-2.53 1.79-3.1l66.308-38.282z" stroke="#33475C" stroke-linecap="round" stroke-linejoin="round"/>
        <path d="M10.772 54.644c0-.959.702-2.174 1.532-2.652l66.308-38.284c.305-.176.578-.218.747-.123.17.099.267.357.267.71v29.557L10.772 83.605V54.644z" fill-opacity=".25" fill="#7BDED2"/>
        <path d="M12.045 51.543l66.308-38.282c.985-.568 1.79-.103 1.79 1.033v3.501l-69.887 40.35v-3.502c0-1.136.806-2.53 1.79-3.1" fill="#CBD6E3"/>
        <path d="M12.045 51.543l66.308-38.282c.985-.568 1.79-.103 1.79 1.033v3.501l-69.887 40.35v-3.502c0-1.136.806-2.53 1.79-3.1z" stroke="#33475C" stroke-linecap="round" stroke-linejoin="round"/>
        <path d="M75.92 50.715L51.74 64.557" fill="#33475C"/>
        <path d="M75.92 50.715L51.74 64.557" stroke="#EAF0F6" stroke-linecap="round" stroke-linejoin="round"/>
        <path d="M75.92 53.685l-15.298 8.832" fill="#33475C"/>
        <path d="M75.92 53.685l-15.298 8.832" stroke="#EAF0F6" stroke-linecap="round" stroke-linejoin="round"/>
        <path d="M22.796 81.487l-9.115 5.218" fill="#33475C"/>
        <path d="M22.796 81.487l-9.115 5.218" stroke="#EAF0F6" stroke-linecap="round" stroke-linejoin="round"/>
        <path d="M28.981 80.998L13.682 89.83" fill="#33475C"/>
        <path d="M28.981 80.998L13.682 89.83" stroke="#EAF0F6" stroke-linecap="round" stroke-linejoin="round"/>
        <path d="M22.796 90.786l-9.115 5.217" fill="#33475C"/>
        <path d="M22.796 90.786l-9.115 5.217" stroke="#EAF0F6" stroke-linecap="round" stroke-linejoin="round"/>
        <path d="M21.331 94.234l-7.649 4.379" fill="#33475C"/>
        <path d="M21.331 94.234l-7.649 4.379" stroke="#EAF0F6" stroke-linecap="round" stroke-linejoin="round"/>
        <path d="M22.796 96.003l-9.115 5.218" fill="#33475C"/>
        <path d="M22.796 96.003l-9.115 5.218" stroke="#EAF0F6" stroke-linecap="round" stroke-linejoin="round"/>
        <path d="M20.295 100.044l-6.613 3.785" fill="#33475C"/>
        <path d="M20.295 100.044l-6.613 3.785" stroke="#EAF0F6" stroke-linecap="round" stroke-linejoin="round"/>
        <path d="M37.704 93.361V80.863c0-.621.44-1.384.979-1.696l36.259-20.934c.538-.31.978-.056.978.565v12.5L37.704 93.36z" fill-opacity=".25" fill="#7BDED2"/>
        <path d="M33.657 72.459v21.174" fill="#33475C"/>
        <path d="M33.657 72.459v21.174" stroke="#7BDED2" stroke-width=".5" opacity=".25" stroke-linecap="round" stroke-linejoin="round"/>
        <path d="M78.354 13.261c.983-.568 1.789-.103 1.789 1.033v53.095c0 1.137-.806 2.533-1.79 3.1l-66.307 38.283c-.985.568-1.79.103-1.79-1.033V54.643c0-1.136.805-2.53 1.79-3.1l66.308-38.282z" stroke="#33475C" stroke-linecap="round" stroke-linejoin="round"/>
        <path d="M40.74 69.934c-.693.4-1.255 1.287-1.255 1.98v2.363c0 .072-.044.164-.111.23-.067.073-.149.103-.197.073l-3.372-1.406c-.235-.099-.555-.047-.888.148l-10.158 5.863c-1.332.77-2.411.313-2.411-1.019V66.727c0-1.332 1.08-3.036 2.411-3.804l20.605-11.897c1.333-.768 2.412-.312 2.412 1.02V63.46c0 1.331-1.079 3.035-2.412 3.804l-4.623 2.67zm1.277 2.901v-1.101l3.372-1.948c2.719-1.571 4.922-5.047 4.925-7.767V50.58c-.003-2.717-2.206-3.648-4.925-2.08L24.785 60.395c-2.72 1.572-4.923 5.047-4.925 7.767v11.409c.002 2.716 2.206 3.648 4.925 2.08l9.603-5.544 3.016 1.274c.77.327 1.928-.111 2.934-1.11 1.007-.989 1.67-2.345 1.679-3.437z" fill="#00BEA5"/>
        <path d="M45.364 67.264c1.333-.77 2.412-2.473 2.412-3.804V52.045c0-1.331-1.079-1.788-2.412-1.019L24.76 62.923c-1.332.768-2.411 2.472-2.411 3.804v11.44c0 1.33 1.08 1.788 2.411 1.018l10.157-5.863c.334-.195.654-.247.89-.148l3.371 1.405c.048.03.13 0 .197-.073.067-.065.112-.157.11-.23v-2.362c0-.693.563-1.58 1.257-1.98l4.623-2.67z" fill="#FFF"/>
        <path d="M38.866 63.643c0-.694-.562-.932-1.256-.53-.695.4-1.256 1.287-1.256 1.98 0 .695.561.931 1.256.531.694-.4 1.256-1.288 1.256-1.981M33.84 66.545c0-.694-.562-.932-1.255-.531-.695.4-1.257 1.287-1.257 1.981 0 .695.562.932 1.257.53.683-.407 1.231-1.282 1.231-1.965l.025-.015zM28.785 69.464c0-.694-.562-.932-1.257-.532-.694.401-1.256 1.288-1.256 1.982s.562.931 1.256.53c.684-.407 1.233-1.282 1.231-1.965l.026-.015zM41.434 62.16c0 .693.563.931 1.256.531.695-.4 1.257-1.288 1.257-1.981 0-.695-.562-.932-1.257-.53-.693.386-1.266 1.267-1.28 1.97v.025l.024-.015z" fill="#00BEA5"/>
        <path d="M46.016 55.583l66.316-38.287c1.003-.58 1.916-.632 2.576-.25l3.472 2.005c.662.381 1.073 1.197 1.073 2.356V65.43c0 2.316-1.643 5.16-3.649 6.317L86.178 88.853l-4.05 9.02-4.05-4.343-28.59 16.505c-1.003.58-1.915.633-2.576.25l-3.472-2.003c-.662-.383-1.072-1.198-1.072-2.356V61.902c0-2.317 1.642-5.16 3.648-6.319" fill="#FCE9C6"/>
        <path d="M42.368 61.901c0-2.316 1.641-5.159 3.647-6.318l66.317-38.287c1.003-.58 1.915-.632 2.576-.25l3.473 2.005c-.662-.383-1.573-.33-2.576.25L49.487 57.588c-2.006 1.16-3.647 4.002-3.647 6.318v44.025c0 1.157.41 1.973 1.071 2.355l-3.472-2.004c-.661-.383-1.071-1.199-1.071-2.356V61.9z" fill="#F6C364"/>
        <path d="M46.016 55.583l66.316-38.287c1.003-.58 1.916-.632 2.576-.25l3.472 2.005c.662.381 1.073 1.197 1.073 2.356V65.43c0 2.316-1.643 5.16-3.649 6.317L86.178 88.853l-4.05 9.02-4.05-4.343-28.59 16.505c-1.003.58-1.915.633-2.576.25l-3.472-2.003c-.662-.383-1.072-1.198-1.072-2.356V61.902c0-2.317 1.642-5.16 3.648-6.319z" stroke="#33475C" stroke-linecap="round" stroke-linejoin="round"/>
        <path d="M53.896 73.242l57.606-33.258M53.896 81.267L97.62 56.023M53.896 65.217l48.909-28.238M53.896 97.317l45.593-26.324M53.896 89.292l55.379-31.973" stroke="#F6C364" stroke-width="2" stroke-linecap="round"/>
        <path d="M104.16 61.817l37.942-21.905c.796-.46 1.518-.501 2.043-.2l2.754 1.59c.524.304.85.951.85 1.869v34.918c0 1.837-1.302 4.092-2.893 5.01l-16.17 9.336h.001l-3.213 7.153-3.213-3.443-15.346 8.86c-.796.46-1.52.501-2.044.198l-2.754-1.589c-.525-.303-.85-.95-.85-1.868V66.828c0-1.836 1.303-4.092 2.894-5.011" fill="#DDF3F7"/>
        <path d="M104.16 61.817l37.942-21.905c.796-.46 1.518-.501 2.043-.2l2.754 1.59c.524.304.85.951.85 1.869v34.918c0 1.837-1.302 4.092-2.893 5.01l-16.17 9.336h.001l-3.213 7.153-3.213-3.443-15.346 8.86c-.796.46-1.52.501-2.044.198l-2.754-1.589c-.525-.303-.85-.95-.85-1.868V66.828c0-1.836 1.303-4.092 2.894-5.011z" stroke="#33475C" stroke-linecap="round" stroke-linejoin="round"/>
        <path d="M101.267 66.828c0-1.837 1.302-4.092 2.893-5.01l37.942-21.907c.795-.458 1.519-.5 2.043-.198l2.754 1.59c-.524-.303-1.248-.26-2.043.198l-37.942 21.906c-1.59.918-2.892 3.174-2.892 5.011v34.917c0 .919.325 1.566.849 1.868l-2.754-1.588c-.524-.305-.85-.951-.85-1.869V66.828z" fill="#7CD1DF"/>
        <path d="M104.16 61.817l37.942-21.905c.796-.46 1.518-.501 2.043-.2l2.754 1.59c.524.304.85.951.85 1.869v34.918c0 1.837-1.302 4.092-2.893 5.01l-16.17 9.336h.001l-3.213 7.153-3.213-3.443-15.346 8.86c-.796.46-1.52.501-2.044.198l-2.754-1.589c-.525-.303-.85-.95-.85-1.868V66.828c0-1.836 1.303-4.092 2.894-5.011z" stroke="#33475C" stroke-linecap="round" stroke-linejoin="round"/>
        <path d="M110.785 77.517l29.882-17.254M110.785 85.54l23.393-13.505M110.785 69.492l26.73-15.434M110.785 93.566l28.579-16.502" stroke="#7CD1DF" stroke-width="2" stroke-linecap="round"/>
    </g>
</svg>
